<?xml version="1.0" encoding="UTF-8" standalone="no"?>
<!-- Created with Inkscape (http://www.inkscape.org/) -->

<svg
   width="407.73663mm"
   height="83.123344mm"
   viewBox="0 0 407.73664 83.123345"
   version="1.1"
   id="svg1"
   xml:space="preserve"
   inkscape:version="1.3 (0e150ed6c4, 2023-07-21)"
   sodipodi:docname="logo_layers_cleaned.svg"
   xmlns:inkscape="http://www.inkscape.org/namespaces/inkscape"
   xmlns:sodipodi="http://sodipodi.sourceforge.net/DTD/sodipodi-0.dtd"
   xmlns:xlink="http://www.w3.org/1999/xlink"
   xmlns="http://www.w3.org/2000/svg"
   xmlns:svg="http://www.w3.org/2000/svg"><sodipodi:namedview
     id="namedview1"
     pagecolor="#ffffff"
     bordercolor="#000000"
     borderopacity="0.25"
     inkscape:showpageshadow="2"
     inkscape:pageopacity="0.0"
     inkscape:pagecheckerboard="0"
     inkscape:deskcolor="#d1d1d1"
     inkscape:document-units="mm"
     inkscape:zoom="0.17677669"
     inkscape:cx="161.22035"
     inkscape:cy="975.80739"
     inkscape:window-width="1920"
     inkscape:window-height="974"
     inkscape:window-x="-11"
     inkscape:window-y="-11"
     inkscape:window-maximized="1"
     inkscape:current-layer="layer1" /><defs
     id="defs1"><linearGradient
       id="linearGradient31"
       inkscape:collect="always"><stop
         style="stop-color:#b56149;stop-opacity:1;"
         offset="0"
         id="stop31" /><stop
         style="stop-color:#d8c87b;stop-opacity:0;"
         offset="1"
         id="stop32" /></linearGradient><linearGradient
       id="linearGradient28"
       inkscape:collect="always"><stop
         style="stop-color:#f69d4d;stop-opacity:1;"
         offset="0"
         id="stop28" /><stop
         style="stop-color:#7dadd0;stop-opacity:1;"
         offset="1"
         id="stop29" /></linearGradient><linearGradient
       id="linearGradient25"
       inkscape:collect="always"><stop
         style="stop-color:#0f304f;stop-opacity:1;"
         offset="0"
         id="stop25" /><stop
         style="stop-color:#0f304f;stop-opacity:0;"
         offset="1"
         id="stop26" /></linearGradient><linearGradient
       id="linearGradient10"
       inkscape:collect="always"><stop
         style="stop-color:#ffffff;stop-opacity:0.56268656;"
         offset="0"
         id="stop10" /><stop
         style="stop-color:#ececec;stop-opacity:0.04626866;"
         offset="1"
         id="stop11" /></linearGradient><filter
       inkscape:collect="always"
       style="color-interpolation-filters:sRGB"
       id="filter10"
       x="-0.021992025"
       y="-0.031975615"
       width="1.0439841"
       height="1.0639512"><feGaussianBlur
         inkscape:collect="always"
         stdDeviation="0.59961886"
         id="feGaussianBlur10" /></filter><linearGradient
       inkscape:collect="always"
       xlink:href="#linearGradient10"
       id="linearGradient11"
       x1="44.603054"
       y1="59.887123"
       x2="48.21109"
       y2="52.236904"
       gradientUnits="userSpaceOnUse"
       gradientTransform="translate(-6.6145833,-6.0854166)" /><linearGradient
       inkscape:collect="always"
       xlink:href="#linearGradient25"
       id="linearGradient26"
       x1="71.343079"
       y1="102.22247"
       x2="62.177948"
       y2="88.614296"
       gradientUnits="userSpaceOnUse"
       gradientTransform="translate(-6.6145833,-6.0854166)" /><linearGradient
       inkscape:collect="always"
       xlink:href="#linearGradient25"
       id="linearGradient27"
       gradientUnits="userSpaceOnUse"
       x1="8.5205841"
       y1="43.010601"
       x2="17.992531"
       y2="45.751797"
       gradientTransform="translate(-6.6145833,-6.0854166)" /><linearGradient
       inkscape:collect="always"
       xlink:href="#linearGradient28"
       id="linearGradient29"
       x1="40.720844"
       y1="46.814892"
       x2="40.86446"
       y2="51.040428"
       gradientUnits="userSpaceOnUse"
       gradientTransform="translate(-6.6145833,-6.0854166)" /><linearGradient
       inkscape:collect="always"
       xlink:href="#linearGradient31"
       id="linearGradient32"
       x1="23.576542"
       y1="33.532299"
       x2="35.098503"
       y2="43.52663"
       gradientUnits="userSpaceOnUse"
       gradientTransform="translate(-6.6145833,-6.0854166)" /></defs><g
     inkscape:label="Layer 1"
     inkscape:groupmode="layer"
     id="layer1"
     transform="translate(-4.7570214,-12.483494)"><path
       id="path8"
       style="display:inline;opacity:1;fill:url(#linearGradient29);fill-opacity:1;stroke:none;stroke-width:1.5875;stroke-linecap:round;stroke-linejoin:round;stroke-miterlimit:3.1;paint-order:stroke fill markers"
       inkscape:label="Top Right"
       d="m 40.248706,12.486059 c -9.494028,0.175596 -27.507268,9.096872 -33.7261063,20.39152 7.8266733,3.84618 17.4748633,8.678227 26.7720093,13.681853 9.841088,5.296369 19.288463,10.785595 25.747266,15.52205 6.400088,4.693399 11.943704,9.376874 16.417085,13.433805 0.760801,-1.041287 1.446764,-2.079382 2.0252,-3.102136 C 79.449395,68.938335 80.194937,61.455156 71.355852,53.749174 61.964603,45.561811 43.077041,40.077596 37.8349,35.07021 c -0.01892,-0.01807 -0.03782,-0.03623 -0.05633,-0.05426 -0.19074,-0.18183 -0.361084,-0.382887 -0.5302,-0.58446 -0.114431,-0.145604 -0.207412,-0.289724 -0.290939,-0.433049 -4.24e-4,-7.29e-4 -0.0011,-0.0013 -0.0016,-0.0021 -0.02275,-0.0391 -0.05147,-0.07889 -0.07183,-0.117822 -0.09278,-0.177421 -0.1641,-0.353191 -0.205156,-0.5271 -0.936089,-3.965245 0.448119,-6.587471 4.522205,-6.622851 7.11626,-0.0618 16.641875,11.743857 26.241292,11.986865 2.715636,0.06875 11.511442,-2.026253 7.957654,-5.164543 C 60.998413,20.833083 48.582974,12.826594 41.140125,12.496911 c -0.287848,-0.01275 -0.58516,-0.01652 -0.891419,-0.01085 z"
       sodipodi:nodetypes="ccsscsssssscscssssc" /><path
       id="path31"
       style="display:inline;opacity:1;fill:url(#linearGradient32);fill-opacity:1;stroke:none;stroke-width:1.5875;stroke-linecap:round;stroke-linejoin:round;stroke-miterlimit:3.1;paint-order:stroke fill markers"
       inkscape:label="Top Right Gradient"
       d="m 6.5225997,32.877579 c 7.8266733,3.84618 17.4748633,8.678227 26.7720093,13.681853 9.841088,5.296369 19.288463,10.785595 25.747266,15.52205 6.400088,4.693399 11.943704,9.376874 16.417085,13.433805 0.760801,-1.041287 1.446764,-2.079382 2.0252,-3.102136 C 79.449395,68.938335 80.194937,61.455156 71.355852,53.749174 62.697295,46.200577 44.3197,40.340956 38.470004,35.626766 38.237432,35.439339 38.027454,35.254141 37.8349,35.07021 37.640352,34.884402 37.485336,34.715676 37.334669,34.534326 37.156956,34.335773 37.022626,34.104712 36.884,33.878519 c -0.123013,-0.235235 -2.416021,-7.09148 4.317049,-7.149951 7.11626,-0.0618 16.641875,11.743857 26.241292,11.986865 2.715636,0.06875 11.511442,-2.026253 7.957654,-5.164543 C 60.998413,20.833083 48.582974,12.826594 41.140125,12.496911 33.602831,12.163053 13.681923,19.874824 6.5225997,32.877579 Z"
       sodipodi:nodetypes="csscssssssssssc" /><path
       style="opacity:0.638961;mix-blend-mode:normal;fill:url(#linearGradient11);stroke:none;stroke-width:1.5875;stroke-linecap:round;stroke-linejoin:round;stroke-miterlimit:3.1;paint-order:stroke fill markers;filter:url(#filter10)"
       d="m 70.351672,73.655857 c 0,0 7.296459,-4.115952 4.115949,-11.786588 C 71.287111,54.198636 37.633854,41.937678 30.898664,38.944262 24.163467,35.950842 17.746769,28.173022 14.960134,28.673187 7.6636757,29.982808 10.296215,37.73483 10.296215,37.73483 Z"
       id="path10"
       sodipodi:nodetypes="cssscc" /><path
       id="path4"
       style="display:inline;opacity:1;fill:#2e7bc3;fill-opacity:1;stroke:none;stroke-width:1.5875;stroke-linecap:round;stroke-linejoin:round;stroke-miterlimit:3.1;paint-order:stroke fill markers"
       inkscape:label="Bottom"
       d="m 6.5226047,32.87758 c -0.138752,0.252001 -0.281802,0.502263 -0.408761,0.75861 -2.122657,4.285939 -1.547631,9.677647 0.29869,14.449248 5.4053803,13.969576 40.6685943,17.930828 41.4625853,30.171801 0.200532,3.091599 -3.023506,2.850831 -6.115905,3.038575 C 32.490022,81.858556 25.773105,70.360504 16.923291,70.012973 13.286672,69.870165 7.8442497,69.548883 7.7338947,73.637882 7.5589637,80.119633 23.739743,89.077498 34.420638,94.137403 46.656495,99.933953 66.692299,87.513999 75.45896,75.515287 70.985574,71.458352 65.44197,66.774886 59.041875,62.081482 46.481252,52.87036 22.633873,40.794971 6.5225997,32.877579 Z"
       sodipodi:nodetypes="cssssssscscc" /><path
       id="path25"
       style="display:inline;opacity:1;fill:url(#linearGradient26);stroke:none;stroke-width:1.5875;stroke-linecap:round;stroke-linejoin:round;stroke-miterlimit:3.1;paint-order:stroke fill markers"
       inkscape:label="Bottom Gradient Bottom"
       d="m 6.1138437,33.63619 c -2.122657,4.285939 -1.547631,9.677647 0.29869,14.449248 5.4053803,13.969576 40.6685943,17.930828 41.4625853,30.171801 0.200532,3.091599 -3.023506,2.850831 -6.115905,3.038575 C 32.490022,81.858556 25.773105,70.360504 16.923291,70.012973 13.286672,69.870165 7.8442497,69.548883 7.7338947,73.637882 7.5589637,80.119633 23.739743,89.077498 34.420638,94.137403 46.656495,99.933953 66.692299,87.513999 75.45896,75.515287 70.985574,71.458352 65.44197,66.774886 59.041875,62.081482 Z"
       sodipodi:nodetypes="cssssssccc"
       sodipodi:insensitive="true" /><path
       id="path26"
       style="display:inline;opacity:1;fill:url(#linearGradient27);fill-opacity:1;stroke:none;stroke-width:1.5875;stroke-linecap:round;stroke-linejoin:round;stroke-miterlimit:3.1;paint-order:stroke fill markers"
       inkscape:label="Bottom Gradient Top"
       d="m 6.1138437,33.63619 c -2.122657,4.285939 -1.547631,9.677647 0.29869,14.449248 5.4053803,13.969576 40.6685943,17.930828 41.4625853,30.171801 0.200532,3.091599 -3.023506,2.850831 -6.115905,3.038575 C 32.490022,81.858556 25.773105,70.360504 16.923291,70.012973 13.286672,69.870165 7.8442497,69.548883 7.7338947,73.637882 7.5589637,80.119633 23.739743,89.077498 34.420638,94.137403 46.656495,99.933953 66.692299,87.513999 75.45896,75.515287 70.985574,71.458352 65.44197,66.774886 59.041875,62.081482 46.481252,52.87036 22.633873,40.794971 6.5225997,32.877579"
       sodipodi:nodetypes="csssssscsc" /><path
       style="-inkscape-font-specification:'Inter Bold';fill:#1a2c5b;stroke-width:1.5875;stroke-linecap:round;stroke-linejoin:round;stroke-miterlimit:3.1;paint-order:stroke fill markers"
       d="m 115.10257,77.232859 q -5.71382,0 -9.75238,-1.794917 -4.03857,-1.824832 -6.192468,-5.265089 -2.1539,-3.440258 -2.1539,-8.286534 h 8.884838 q 0.0598,2.453054 1.1667,4.18814 1.13678,1.735086 3.20093,2.66246 2.06416,0.927374 4.90611,0.927374 2.57271,0 4.45738,-0.688052 1.91457,-0.717966 2.96161,-2.004324 1.07695,-1.286357 1.07695,-3.021443 0,-1.435934 -0.83763,-2.482969 -0.80771,-1.07695 -2.57271,-1.884662 -1.73509,-0.807713 -4.57704,-1.406019 l -4.6967,-1.017119 q -6.64119,-1.435934 -9.87204,-4.517208 -3.230855,-3.081274 -3.230855,-7.867719 0,-4.068479 2.123985,-7.089922 2.12398,-3.051359 5.92323,-4.75653 3.82915,-1.705171 8.88483,-1.705171 5.11552,0 8.85493,1.735086 3.73941,1.735087 5.80356,4.965937 2.09407,3.200935 2.24365,7.688228 h -8.6156 q -0.23932,-3.17102 -2.45306,-4.995852 -2.21373,-1.824833 -5.80356,-1.824833 -2.24365,0 -4.00865,0.717967 -1.73508,0.688052 -2.7522,1.944493 -0.98721,1.256442 -0.98721,2.871868 0,1.376103 0.7778,2.393222 0.7778,0.987205 2.48297,1.735087 1.70517,0.747882 4.42746,1.346187 l 4.27788,0.927374 q 3.55992,0.777797 6.16255,1.914578 2.60263,1.106866 4.27789,2.66246 1.67525,1.52568 2.48297,3.530004 0.80771,2.004324 0.80771,4.517207 0,4.277886 -2.1539,7.41899 -2.12399,3.11119 -6.10272,4.786446 -3.94882,1.675255 -9.42331,1.675255 z m 25.74042,-0.717966 V 31.941122 h 31.97944 v 7.897634 H 150.0569 v 10.320773 h 21.06036 v 7.688227 H 150.0569 v 10.769502 h 22.76553 v 7.897635 z m 36.839,0 15.64569,-44.573771 h 11.84645 l 15.6457,44.573771 h -10.20112 l -7.00017,-21.68858 q -1.28636,-4.277886 -2.66246,-8.795093 -1.34619,-4.547123 -2.9317,-10.320773 h 2.5428 q -1.64534,5.77365 -3.02144,10.320773 -1.34619,4.517207 -2.69238,8.795093 l -7.2395,21.68858 z m 9.93187,-9.722467 v -7.35916 h 23.30401 v 7.35916 z m 39.47154,9.722467 V 31.941122 h 17.59019 q 5.02577,0 8.67543,1.794917 3.64967,1.765001 5.62408,5.055682 2.00432,3.260766 2.00432,7.777974 0,4.487292 -2.00432,7.777973 -2.00433,3.260766 -5.71382,5.055683 -3.67958,1.794917 -8.70535,1.794917 h -12.35501 v -7.718143 h 11.87637 q 2.45305,0 4.21805,-0.837628 1.765,-0.867543 2.72229,-2.423138 0.95729,-1.555594 0.95729,-3.649664 0,-2.153901 -0.95729,-3.67958 -0.95729,-1.525679 -2.72229,-2.363307 -1.765,-0.867543 -4.21805,-0.867543 h -7.77798 v 36.855628 z m 41.3263,0 V 31.941122 h 31.97944 v 7.897634 h -22.76553 v 10.320773 h 21.06035 v 7.688227 h -21.06035 v 10.769502 h 22.76553 v 7.897635 z m 55.62579,0 H 312.5201 v -7.748059 h 11.03874 q 4.4873,0 7.41899,-1.675255 2.9317,-1.705172 4.36763,-4.936022 1.43594,-3.260766 1.43594,-7.957465 0,-4.6967 -1.43594,-7.92755 -1.43593,-3.230851 -4.36763,-4.906106 -2.90178,-1.675256 -7.32924,-1.675256 H 312.3107 v -7.748058 h 11.90628 q 6.70102,0 11.60713,2.72229 4.90611,2.692376 7.56857,7.688228 2.66246,4.995852 2.66246,11.846452 0,6.8506 -2.66246,11.876367 -2.66246,4.995852 -7.59849,7.718143 -4.9061,2.722291 -11.7567,2.722291 z m -6.52153,-44.573771 v 44.573771 h -9.21391 V 31.941122 Z m 45.60418,0 v 44.573771 h -9.2139 V 31.941122 Z m 6.23567,44.573771 15.64569,-44.573771 h 11.84645 l 15.6457,44.573771 h -10.20112 l -7.00017,-21.68858 Q 394.006,50.548427 392.6299,46.03122 391.28371,41.484097 389.6982,35.710447 h 2.5428 q -1.64534,5.77365 -3.02144,10.320773 -1.34619,4.517207 -2.69238,8.795093 l -7.2395,21.68858 z m 9.93187,-9.722467 v -7.35916 h 23.30401 v 7.35916 z"
       id="text2"
       aria-label="SEAPEDIA" /></g></svg>
